<svg width="170" height="61" viewBox="0 0 170 61" fill="none" xmlns="http://www.w3.org/2000/svg">
<path d="M57.1069 47.8025C57.1069 50.2016 55.7366 52.3953 53.5707 53.427C49.4815 55.3749 41.6898 57.9999 29.3938 57.9999C17.0978 57.9999 9.30611 55.3749 5.21696 53.427C3.05102 52.3953 1.68079 50.2016 1.68079 47.8025C1.68079 44.3561 4.47471 41.5621 7.92119 41.5621H50.8665C54.3129 41.5621 57.1069 44.3561 57.1069 47.8025Z" fill="#E59328"/>
<path d="M56.866 38.2962C56.866 35.8972 55.4958 33.7034 53.3298 32.6717C49.2407 30.7238 41.449 28.0988 29.153 28.0988C16.857 28.0988 9.06527 30.7238 4.97611 32.6717C2.81018 33.7034 1.43994 35.8972 1.43994 38.2962C1.43994 38.3309 1.44199 38.365 1.44259 38.3995C1.44199 38.434 1.43994 38.4682 1.43994 38.5028C1.43994 40.9018 2.81018 43.0956 4.97611 44.1272C9.06527 46.0751 16.857 48.7001 29.153 48.7001C41.449 48.7001 49.2407 46.0751 53.3298 44.1272C55.4958 43.0956 56.866 40.9018 56.866 38.5028C56.866 38.4681 56.864 38.4339 56.8634 38.3995C56.864 38.3649 56.866 38.3307 56.866 38.2962V38.2962Z" fill="#7A2F18"/>
<path d="M29.7701 44.4291C43.8278 44.4291 55.2239 40.5473 55.2239 35.7587C55.2239 30.9702 43.8278 27.0884 29.7701 27.0884C15.7123 27.0884 4.31628 30.9702 4.31628 35.7587C4.31628 40.5473 15.7123 44.4291 29.7701 44.4291Z" fill="#DB1D1D"/>
<path d="M29.7701 41.1283C43.8278 41.1283 55.2239 37.2464 55.2239 32.4579C55.2239 27.6694 43.8278 23.7875 29.7701 23.7875C15.7123 23.7875 4.31628 27.6694 4.31628 32.4579C4.31628 37.2464 15.7123 41.1283 29.7701 41.1283Z" fill="#FF473E"/>
<path d="M57.3603 26.9963C54.4509 25.3813 50.1987 24.7458 46.4606 24.7475C44.4216 24.7485 42.3457 24.9612 40.3996 25.3591C38.8837 25.669 37.4021 26.0612 35.8431 26.2629C35.5818 26.2738 35.3202 26.2762 35.0587 26.2703C34.8794 26.2425 34.701 26.2096 34.5235 26.1717C33.8773 25.9546 33.2635 25.7005 32.637 25.4576C31.6332 25.0686 30.582 24.7645 29.5007 24.4776C27.5986 23.973 25.5952 23.7325 23.5564 23.6122C19.7063 23.385 15.7372 23.9653 12.3141 25.1312C11.7659 25.1764 11.2252 25.2871 10.7033 25.4607C7.20902 26.6261 4.24966 28.4861 2.17126 30.6584C1.72988 31.1198 1.33907 31.6022 1.00365 32.1005C0.272479 33.1868 -0.383443 34.3042 0.265134 35.5056C1.47946 37.7549 5.10857 38.5756 8.44706 38.0477C10.7498 37.6837 12.5454 36.6862 14.3512 35.7425C14.8039 35.528 15.2725 35.3322 15.7667 35.1644C15.8216 35.1527 15.8764 37.189 15.9316 37.1784C16.3947 37.4562 16.8308 37.7531 17.304 38.0243C18.1102 38.4862 18.9727 38.9313 19.8899 39.2961C21.7682 40.0434 24.0147 40.522 26.2248 40.5085C28.4829 40.4948 30.6394 40.0214 32.4212 39.1178C33.3704 38.6364 34.149 38.0685 34.7506 37.3769C34.9708 37.1238 35.161 36.8617 35.3693 36.6064C35.5397 36.6357 36.8287 35.0145 37.2782 35.2282C38.4036 35.8204 39.5023 36.4429 40.7219 36.9479C42.4084 37.6463 44.3932 38.0657 46.3949 38.0692C50.2492 38.0762 53.8853 36.6159 56.5612 34.8952C57.942 34.0072 59.2334 32.8287 59.6131 31.5599C60.1162 29.8791 59.399 28.128 57.3603 26.9963V26.9963ZM17.8924 29.628C18.6975 29.4553 19.5106 29.3225 20.3288 29.2302C21.4575 29.1595 22.5896 29.1595 23.7183 29.2302C24.778 29.35 25.8139 29.5327 26.8209 29.7802C27.6196 30.0326 28.3701 32.3837 29.1345 32.6744C28.3601 33.2743 27.9236 33.9899 27.2859 34.6514C27.2535 34.6733 27.22 34.6946 27.1867 34.7159C27.1039 34.7489 27.0205 34.7805 26.9366 34.8105C26.7798 34.8423 26.6223 34.8703 26.4641 34.8943C26.2614 34.8998 26.0586 34.8995 25.8559 34.8936C25.5536 34.8487 25.2531 34.7925 24.955 34.7252C24.476 34.5669 24.0061 34.3821 23.5476 34.1717C22.7071 33.7006 21.9468 33.1737 21.0692 32.7286C20.1214 32.2481 19.0455 29.8212 17.8924 29.628V29.628ZM49.5125 31.5175C48.8996 31.8063 48.2611 32.0661 47.5854 32.2852C47.2854 32.3533 46.983 32.4099 46.6787 32.455C46.5218 32.4588 46.3649 32.4591 46.208 32.4558C46.0524 32.4312 45.8973 32.4028 45.7431 32.3706C45.2061 32.1876 44.701 31.9702 44.2115 31.7353C43.634 31.4294 43.0632 31.1133 42.4778 30.8113C43.2777 30.648 44.0839 30.5048 44.9121 30.4062C45.9659 30.3416 47.0227 30.3423 48.0765 30.4081C48.9398 30.5072 49.7971 30.6532 50.6445 30.8454C50.2871 31.0829 49.9065 31.305 49.5125 31.5175V31.5175Z" fill="#00B89C"/>
<path d="M12.5783 39.895C10.9625 37.2812 7.85637 32.463 3.97562 27.4472C-1.60043 28.3935 42.8394 20.9029 42.8394 20.9029C55.2495 22.21 56.8887 28.3498 56.8949 31.4801C56.897 32.482 56.0376 33.2703 55.0382 33.1996C28.4522 31.3172 18.498 37.2518 15.2194 40.2671C14.4205 41.0016 13.149 40.8181 12.5783 39.895V39.895Z" fill="#FECB21"/>
<path d="M29.153 3C14.3207 3 1.43994 12.3678 1.43994 23.6517C1.43994 29.668 13.8474 34.5451 29.153 34.5451C44.4585 34.5451 56.866 29.668 56.866 23.6517C56.866 12.687 43.9853 3 29.153 3V3Z" fill="#E59328"/>
<path d="M11.7735 15.9693L12.9366 18.4896C13.0025 18.6324 13.009 18.7956 12.9546 18.9432C12.9002 19.0909 12.7894 19.2108 12.6466 19.2767C12.5635 19.3147 12.4729 19.3331 12.3816 19.3305C12.2903 19.328 12.2008 19.3046 12.12 19.2622L9.66798 17.9615C8.92176 17.5657 8.63762 16.6398 9.03349 15.8936C9.42935 15.1474 10.3552 14.8632 11.1014 15.2591C11.3974 15.4156 11.6335 15.6652 11.7735 15.9693V15.9693ZM36.2924 7.05058C35.5462 6.65471 34.6203 6.93885 34.2245 7.68507C33.8286 8.43129 34.1127 9.35714 34.8589 9.753L37.3109 11.0536C37.3918 11.0961 37.4813 11.1195 37.5726 11.122C37.6638 11.1245 37.7545 11.1061 37.8376 11.0682C37.9804 11.0023 38.0912 10.8823 38.1456 10.7347C38.2 10.5871 38.1935 10.4239 38.1276 10.2811L36.9644 7.7608C36.8244 7.45673 36.5883 7.20716 36.2924 7.05058ZM22.4949 10.15C22.0104 9.45791 21.0567 9.28972 20.3646 9.77431C19.6726 10.2588 19.5044 11.2126 19.989 11.9046L21.581 14.1783C21.6337 14.2529 21.7027 14.3144 21.7829 14.3582C21.863 14.402 21.9521 14.4268 22.0433 14.4308C22.2005 14.437 22.3538 14.3806 22.4694 14.2739C22.585 14.1671 22.6535 14.0189 22.6597 13.8617L22.7704 11.0882C22.784 10.7537 22.6872 10.424 22.4949 10.15V10.15ZM50.609 16.9118C50.975 16.1132 50.6243 15.1692 49.8258 14.8033C49.0272 14.4373 48.0832 14.788 47.7173 15.5865L46.8199 17.5446C46.7705 17.6525 46.7532 17.7723 46.7702 17.8897C46.7872 18.0071 46.8376 18.1171 46.9156 18.2066C46.9935 18.2961 47.0955 18.3612 47.2095 18.3941C47.3235 18.427 47.4445 18.4264 47.5582 18.3923L49.621 17.7723C50.0406 17.644 50.4118 17.342 50.609 16.9118V16.9118ZM27.9194 23.3714C27.089 23.2165 26.2902 23.7639 26.1351 24.5943C25.9802 25.4247 26.5276 26.2235 27.358 26.3786L30.0865 26.8879C30.1764 26.9042 30.2687 26.8998 30.3566 26.875C30.4444 26.8502 30.5255 26.8056 30.5934 26.7446C30.6512 26.6923 30.6981 26.6292 30.7315 26.5588C30.7648 26.4884 30.784 26.4121 30.7879 26.3343C30.7917 26.2565 30.7803 26.1787 30.7541 26.1054C30.7279 26.032 30.6875 25.9645 30.6352 25.9068L28.7728 23.8487C28.5485 23.6002 28.2486 23.4325 27.9194 23.3714V23.3714ZM42.6259 25.6896C42.9641 26.4637 43.8657 26.8171 44.6399 26.4789C45.414 26.1407 45.7674 25.239 45.4292 24.4649L44.3179 21.9214C44.281 21.8378 44.2255 21.7639 44.1556 21.7051C44.0857 21.6464 44.0032 21.6044 43.9146 21.5825C43.8389 21.564 43.7603 21.5607 43.6833 21.5726C43.6063 21.5846 43.5325 21.6116 43.4659 21.652C43.3993 21.6925 43.3414 21.7458 43.2954 21.8086C43.2494 21.8715 43.2163 21.9428 43.1979 22.0185L42.5412 24.7154C42.4619 25.0406 42.4916 25.3829 42.6259 25.6896V25.6896ZM19.6507 24.9295C19.7477 24.0807 19.1383 23.314 18.2895 23.217C17.4407 23.1199 16.674 23.7294 16.5769 24.5782L16.2583 27.367C16.2503 27.4382 16.2577 27.5103 16.2799 27.5784C16.3021 27.6466 16.3385 27.7092 16.3868 27.7621C16.4765 27.8597 16.6014 27.9177 16.7338 27.9233C16.8663 27.9289 16.9956 27.8817 17.0932 27.792L19.1603 25.893C19.4344 25.6413 19.6085 25.2992 19.6507 24.9295V24.9295ZM33.6694 19.8902C34.4624 20.1814 35.3413 19.7747 35.6325 18.9818C35.9237 18.1888 35.517 17.3099 34.7241 17.0187L32.1186 16.0618C32.0327 16.0307 31.9409 16.0196 31.8501 16.0295C31.7594 16.0393 31.6721 16.0698 31.5949 16.1186C31.4623 16.2033 31.3687 16.3371 31.3348 16.4908C31.3009 16.6444 31.3294 16.8052 31.414 16.9378L32.9074 19.2775C33.0873 19.5598 33.355 19.7752 33.6694 19.8902V19.8902Z" fill="#FFCD7D"/>
<path d="M81.8801 18.64C79.9067 18.64 78.1867 19 76.7201 19.72C75.2801 20.4133 74.0801 21.3333 73.1201 22.48C72.1601 23.6 71.4401 24.8667 70.9601 26.28C70.5067 27.6933 70.2801 29.0933 70.2801 30.48C70.2801 32.0533 70.5867 33.6 71.2001 35.12C71.8134 36.6133 72.6534 37.9467 73.7201 39.12C74.8134 40.2667 76.0801 41.2 77.5201 41.92C78.9601 42.6133 80.5201 42.96 82.2001 42.96C82.6801 42.96 83.2401 42.9067 83.8801 42.8C84.5467 42.6933 85.2001 42.4933 85.8401 42.2C86.4801 41.88 87.0667 41.44 87.6001 40.88C88.1601 40.32 88.5867 39.5867 88.8801 38.68H89.2801V43.12C88.8801 43.12 88.4534 43.1733 88.0001 43.28C87.5734 43.3867 87.0934 43.5067 86.5601 43.64C85.8667 43.8267 85.0934 44 84.2401 44.16C83.4134 44.32 82.5334 44.4 81.6001 44.4C79.2801 44.4 77.2401 44 75.4801 43.2C73.7201 42.4 72.2534 41.36 71.0801 40.08C69.9067 38.8 69.0267 37.36 68.4401 35.76C67.8534 34.1333 67.5601 32.4933 67.5601 30.84C67.5601 29.1867 67.8534 27.5467 68.4401 25.92C69.0267 24.2933 69.9201 22.84 71.1201 21.56C72.3201 20.2533 73.8267 19.2 75.6401 18.4C77.4534 17.6 79.5867 17.2 82.0401 17.2C82.9201 17.2 83.7067 17.28 84.4001 17.44C85.1201 17.6 85.7601 17.76 86.3201 17.92C86.7201 18.0533 87.0801 18.16 87.4001 18.24C87.7467 18.2933 88.0801 18.32 88.4001 18.32V22.76H88.0001C87.8401 21.9333 87.5467 21.2533 87.1201 20.72C86.6934 20.16 86.1867 19.7333 85.6001 19.44C85.0401 19.1467 84.4267 18.9467 83.7601 18.84C83.1201 18.7067 82.4934 18.64 81.8801 18.64Z" fill="#0E1317"/>
<path d="M102.482 30.12C102.162 29.5867 101.829 29.2533 101.482 29.12C101.135 28.9867 100.735 28.92 100.282 28.92C99.9886 28.92 99.6686 28.9867 99.3219 29.12C99.0019 29.2533 98.6819 29.4267 98.3619 29.64C98.0419 29.8533 97.7219 30.0933 97.4019 30.36C97.1086 30.6 96.8553 30.8267 96.6419 31.04V41.44C96.6419 41.6533 96.6686 41.88 96.7219 42.12C96.7753 42.36 96.8553 42.6 96.9619 42.84C97.0953 43.0533 97.2286 43.24 97.3619 43.4C97.5219 43.5333 97.7086 43.6 97.9219 43.6V44H92.7219V43.6C92.9086 43.6 93.0819 43.5333 93.2419 43.4C93.4019 43.24 93.5353 43.0533 93.6419 42.84C93.7753 42.6 93.8686 42.36 93.9219 42.12C93.9753 41.88 94.0019 41.6533 94.0019 41.44V30.28C94.0019 29.9067 93.8819 29.5333 93.6419 29.16C93.4019 28.7867 93.0553 28.5467 92.6019 28.44V28.12L96.6419 26.92V29.32C96.8819 29.0267 97.1353 28.7467 97.4019 28.48C97.6686 28.1867 97.9619 27.9333 98.2819 27.72C98.6286 27.48 99.0019 27.2933 99.4019 27.16C99.8019 27 100.269 26.92 100.802 26.92C101.175 26.92 101.655 27 102.242 27.16C102.829 27.32 103.309 27.4933 103.682 27.68L102.482 30.12Z" fill="#0E1317"/>
<path d="M106.758 44V43.6C106.972 43.6 107.158 43.52 107.318 43.36C107.478 43.2 107.612 43.0133 107.718 42.8C107.825 42.5867 107.905 42.36 107.958 42.12C108.012 41.8533 108.038 41.6133 108.038 41.4V30.32C108.038 29.8667 107.972 29.44 107.838 29.04C107.705 28.6133 107.318 28.3867 106.678 28.36V28L110.678 26.72V41.4C110.678 41.6133 110.705 41.8533 110.758 42.12C110.812 42.36 110.892 42.5867 110.998 42.8C111.105 43.0133 111.238 43.2 111.398 43.36C111.558 43.52 111.745 43.6 111.958 43.6V44H106.758ZM106.958 22.88C106.958 22.3467 107.132 21.8933 107.478 21.52C107.852 21.1467 108.305 20.96 108.838 20.96C109.372 20.96 109.825 21.1467 110.198 21.52C110.572 21.8933 110.758 22.3467 110.758 22.88C110.758 23.4133 110.572 23.8533 110.198 24.2C109.825 24.5467 109.372 24.72 108.838 24.72C108.305 24.72 107.852 24.5467 107.478 24.2C107.132 23.8533 106.958 23.4133 106.958 22.88Z" fill="#0E1317"/>
<path d="M129.238 39.44C129.238 40.1333 129.064 40.7733 128.718 41.36C128.371 41.9467 127.891 42.4667 127.278 42.92C126.691 43.3467 125.998 43.6933 125.198 43.96C124.398 44.2 123.531 44.32 122.598 44.32C121.451 44.32 120.518 44.1733 119.798 43.88C119.078 43.56 118.464 43.24 117.958 42.92C117.611 42.7067 117.291 42.5333 116.998 42.4C116.704 42.24 116.384 42.16 116.038 42.16V39.12H116.438C116.518 39.4933 116.744 39.9067 117.118 40.36C117.518 40.7867 117.984 41.1867 118.518 41.56C119.078 41.9333 119.678 42.2533 120.318 42.52C120.984 42.76 121.651 42.88 122.318 42.88C122.798 42.88 123.291 42.8267 123.798 42.72C124.304 42.6133 124.758 42.44 125.158 42.2C125.584 41.96 125.931 41.6667 126.198 41.32C126.491 40.9467 126.638 40.5067 126.638 40C126.638 39.4933 126.491 39.0533 126.198 38.68C125.904 38.3067 125.531 37.9867 125.078 37.72C124.624 37.4267 124.104 37.1733 123.518 36.96C122.931 36.7467 122.344 36.5467 121.758 36.36C121.064 36.1467 120.358 35.9067 119.638 35.64C118.944 35.3733 118.318 35.0667 117.758 34.72C117.198 34.3467 116.744 33.9067 116.398 33.4C116.051 32.8667 115.878 32.24 115.878 31.52C115.878 30.9067 115.984 30.32 116.198 29.76C116.438 29.2 116.811 28.72 117.318 28.32C117.851 27.8933 118.531 27.56 119.358 27.32C120.184 27.0533 121.184 26.92 122.358 26.92C123.398 26.92 124.198 27.0133 124.758 27.2C125.344 27.36 125.824 27.5333 126.198 27.72C126.438 27.8533 126.678 27.96 126.918 28.04C127.158 28.0933 127.424 28.12 127.718 28.12V30.92H127.398C126.918 30.04 126.184 29.3733 125.198 28.92C124.211 28.4667 123.198 28.24 122.158 28.24C121.491 28.24 120.918 28.3333 120.438 28.52C119.958 28.68 119.558 28.8933 119.238 29.16C118.944 29.4 118.718 29.68 118.558 30C118.424 30.32 118.358 30.64 118.358 30.96C118.358 31.4133 118.478 31.8 118.718 32.12C118.984 32.44 119.331 32.72 119.758 32.96C120.211 33.2 120.704 33.4267 121.238 33.64C121.798 33.8533 122.384 34.0533 122.998 34.24C123.744 34.48 124.491 34.7467 125.238 35.04C125.984 35.3067 126.651 35.64 127.238 36.04C127.824 36.44 128.304 36.92 128.678 37.48C129.051 38.0133 129.238 38.6667 129.238 39.44Z" fill="#0E1317"/>
<path d="M141.203 26.92C142.643 26.92 143.883 27.1733 144.923 27.68C145.99 28.16 146.87 28.8 147.563 29.6C148.283 30.4 148.816 31.32 149.163 32.36C149.51 33.4 149.683 34.4667 149.683 35.56C149.683 36.6267 149.51 37.68 149.163 38.72C148.843 39.76 148.336 40.6933 147.643 41.52C146.976 42.3467 146.136 43.0133 145.123 43.52C144.11 44.0267 142.91 44.28 141.523 44.28C140.696 44.28 139.843 44.0667 138.963 43.64C138.11 43.1867 137.336 42.6267 136.643 41.96V49.8C136.643 50.0133 136.67 50.24 136.723 50.48C136.776 50.7467 136.856 50.9867 136.963 51.2C137.096 51.4133 137.23 51.6 137.363 51.76C137.523 51.92 137.71 52 137.923 52V52.4H132.723V52C132.91 52 133.083 51.92 133.243 51.76C133.403 51.6 133.536 51.4133 133.643 51.2C133.776 50.9867 133.87 50.7467 133.923 50.48C133.976 50.24 134.003 50.0133 134.003 49.8V29.56C134.003 29.32 133.99 29.0933 133.963 28.88C133.963 28.64 133.923 28.44 133.843 28.28C133.763 28.0933 133.63 27.9467 133.443 27.84C133.283 27.7067 133.043 27.6267 132.723 27.6V27.2H136.643V28.96C137.176 28.32 137.816 27.8267 138.563 27.48C139.336 27.1067 140.216 26.92 141.203 26.92ZM141.563 42.92C142.496 42.8933 143.31 42.68 144.003 42.28C144.696 41.88 145.27 41.36 145.723 40.72C146.176 40.08 146.51 39.3733 146.723 38.6C146.936 37.8 147.043 36.9733 147.043 36.12C147.043 35.16 146.91 34.2133 146.643 33.28C146.376 32.3467 145.99 31.52 145.483 30.8C144.976 30.0533 144.35 29.4533 143.603 29C142.883 28.52 142.056 28.28 141.123 28.28C140.563 28.28 140.003 28.3867 139.443 28.6C138.91 28.8133 138.43 29.12 138.003 29.52C137.603 29.92 137.27 30.4 137.003 30.96C136.763 31.4933 136.643 32.0933 136.643 32.76V38C136.643 38.72 136.79 39.3867 137.083 40C137.376 40.5867 137.75 41.1067 138.203 41.56C138.683 41.9867 139.216 42.32 139.803 42.56C140.39 42.8 140.976 42.92 141.563 42.92Z" fill="#0E1317"/>
<path d="M159.669 49.72C159.295 50.84 158.815 51.6 158.229 52C157.669 52.4 157.082 52.6 156.469 52.6C156.069 52.6 155.709 52.5467 155.389 52.44C155.095 52.3333 154.829 52.2 154.589 52.04C154.375 51.9067 154.202 51.7733 154.069 51.64C153.935 51.5067 153.855 51.4 153.829 51.32L155.149 48.08C155.282 48.56 155.415 48.92 155.549 49.16C155.682 49.4267 155.869 49.6667 156.109 49.88C156.349 50.0933 156.642 50.2 156.989 50.2C157.629 50.2 158.135 49.7333 158.509 48.8L160.469 43.88L154.029 29.32C153.895 29 153.669 28.64 153.349 28.24C153.055 27.8133 152.642 27.6 152.109 27.6V27.2H157.389V27.6C157.282 27.6 157.149 27.6933 156.989 27.88C156.829 28.0667 156.749 28.3067 156.749 28.6C156.749 28.84 156.802 29.0533 156.909 29.24L161.829 40.56L166.549 29C166.629 28.8133 166.669 28.64 166.669 28.48C166.669 28.2133 166.575 28 166.389 27.84C166.229 27.68 166.055 27.6 165.869 27.6V27.2H169.749V27.6C169.322 27.6 168.949 27.7867 168.629 28.16C168.335 28.5067 168.095 28.9067 167.909 29.36L159.669 49.72Z" fill="#0E1317"/>
</svg>
